<svg xmlns="http://www.w3.org/2000/svg" width="96" height="96" style="fill-rule:evenodd;clip-rule:evenodd"><path style="opacity:.014" fill="#fefffe" d="M29.5.5v-1h3c-.71.904-1.71 1.237-3 1zM62.5-.5h3v1c-1.29.237-2.29-.096-3-1z"/><path style="opacity:.031" fill="#e9e9e9" d="M29.5.5c-.397 1.025-1.063 1.192-2 .5a2.427 2.427 0 0 1 2-.5z"/><path style="opacity:.012" fill="#f4f4f4" d="M65.5.5a2.427 2.427 0 0 1 2 .5c-.937.692-1.603.525-2-.5z"/><path style="opacity:.027" fill="#dadbda" d="M69.5 2.5c1.333.667 1.333.667 0 0z"/><path style="opacity:.016" fill="#fefffe" d="M22.5 3.5c1.333.667 1.333.667 0 0zM71.5 3.5c1.333.667 1.333.667 0 0z"/><path style="opacity:.014" fill="#fefffe" d="M20.5 6.5c-.667 0-1 .333-1 1-2.475-.247-2.475-.913 0-2 .607.124.94.457 1 1zM74.5 6.5c.997-1.213 1.997-1.046 3 .5a2.427 2.427 0 0 1-2 .5c0-.667-.333-1-1-1z"/><path style="opacity:.013" fill="#fefffe" d="M14.5 11.5c-.667 0-1 .333-1 1-.667 0-1 .333-1 1-.667 0-1 .333-1 1-1.007-1.768-.34-3.101 2-4 .607.124.94.457 1 1zM80.5 11.5c1.768-1.007 3.101-.34 4 2-.124.607-.457.94-1 1 0-.667-.333-1-1-1 0-.667-.333-1-1-1 0-.667-.333-1-1-1z"/><path style="opacity:.014" fill="#fefffe" d="M7.5 19.5c-.667 0-1 .333-1 1-1.213-.997-1.046-1.997.5-3 .464.594.63 1.261.5 2zM89.5 20.5h-1c0-.667-.333-1-1-1 .801-2.293 1.468-1.96 2 1z"/><path style="opacity:.008" fill="#fefffe" d="M89.5 20.5c.838.342 1.172 1.008 1 2h-1v-2z"/><path style="opacity:.016" fill="#fefffe" d="M3.5 22.5c1.333.667 1.333.667 0 0zM90.5 22.5c1.333.667 1.333.667 0 0z"/><path style="opacity:.02" fill="#fefffe" d="M93.5 27.5h-1c.333-2.667.667-2.667 1 0z"/><path style="opacity:.997" fill="#f0f0ef" d="M37.5-.5h20a126.536 126.536 0 0 0 12 4c1.16 1.75 2.826 2.75 5 3 .667 0 1 .333 1 1a807.536 807.536 0 0 1 5 4c.667 0 1 .333 1 1 .667 0 1 .333 1 1 .667 0 1 .333 1 1a807.953 807.953 0 0 1 4 5c.667 0 1 .333 1 1-.172.992.162 1.658 1 2 .61 1.934 1.61 3.6 3 5 .63 3.548 1.63 6.881 3 10v20c-1.37 3.119-2.37 6.452-3 10-.838.342-1.172 1.008-1 2-1.406.473-2.073 1.473-2 3-.838.342-1.172 1.008-1 2-.667 0-1 .333-1 1-.838.342-1.172 1.008-1 2-.667 0-1 .333-1 1-.667 0-1 .333-1 1-.667 0-1 .333-1 1-.667 0-1 .333-1 1-.667 0-1 .333-1 1-.667 0-1 .333-1 1-.667 0-1 .333-1 1-.667 0-1 .333-1 1-.667 0-1 .333-1 1-.992-.172-1.658.162-2 1-.667 0-1 .333-1 1-.992-.172-1.658.162-2 1-1.527-.073-2.527.594-3 2-.992-.172-1.658.162-2 1-3.548.63-6.881 1.63-10 3h-20c-3.119-1.37-6.452-2.37-10-3-1.4-1.39-3.066-2.39-5-3-.342-.838-1.008-1.172-2-1 0-.667-.333-1-1-1a807.953 807.953 0 0 1-5-4c0-.667-.333-1-1-1 0-.667-.333-1-1-1 0-.667-.333-1-1-1a807.536 807.536 0 0 1-4-5c0-.667-.333-1-1-1-.25-2.174-1.25-3.84-3-5a126.537 126.537 0 0 0-4-12v-20a90.15 90.15 0 0 1 7-17c.667 0 1-.333 1-1a807.574 807.574 0 0 1 4-5c.667 0 1-.333 1-1 .667 0 1-.333 1-1 .667 0 1-.333 1-1a807.574 807.574 0 0 1 5-4c.667 0 1-.333 1-1a90.15 90.15 0 0 1 17-7z"/><path style="opacity:1" fill="#757575" d="M8.5 25.5c26 1.333 52 1.333 78 0 .543.06.876.393 1 1a800.52 800.52 0 0 1-80 0c.124-.607.457-.94 1-1z"/><path style="opacity:1" fill="#1c1c1e" d="M86.5 25.5c-26 1.333-52 1.333-78 0C20.25 7.13 36.917-.037 58.5 4c12.192 3.58 21.525 10.746 28 21.5z"/><path style="opacity:.031" fill="#e9e9e9" d="M.5 29.5a2.427 2.427 0 0 1 .5-2c.692.937.525 1.603-.5 2zM93.5 27.5c.838.342 1.172 1.008 1 2-.838-.342-1.172-1.008-1-2z"/><path style="opacity:.014" fill="#fefffe" d="M-.5 29.5h1c.237 1.29-.096 2.29-1 3v-3zM94.5 29.5h1v3c-.904-.71-1.237-1.71-1-3zM-.5 62.5c.904.71 1.237 1.71 1 3h-1v-3zM95.5 62.5v3h-1c-.237-1.29.096-2.29 1-3z"/><path style="opacity:.012" fill="#f4f4f4" d="M.5 65.5c1.025.397 1.192 1.063.5 2a2.427 2.427 0 0 1-.5-2zM94.5 65.5c.172.992-.162 1.658-1 2-.172-.992.162-1.658 1-2z"/><path style="opacity:1" fill="#fbbe72" d="M86.5 69.5c-26-1.333-52-1.333-78 0-.543-.06-.876-.393-1-1a800.523 800.523 0 0 1 80 0c-.124.607-.457.94-1 1z"/><path style="opacity:.02" fill="#fefffe" d="M92.5 67.5h1c.172.992-.162 1.658-1 2v-2z"/><path style="opacity:.027" fill="#dadbda" d="M3.5 69.5c-.667.667-.667.667 0 0zM91.5 69.5h1c-.185.67-.519.67-1 0z"/><path style="opacity:1" fill="#feaf0d" d="M86.5 69.5C74.503 88.157 57.503 95.323 35.5 91c-12.11-3.373-21.11-10.54-27-21.5 26-1.333 52-1.333 78 0z"/><path style="opacity:.016" fill="#fefffe" d="M3.5 71.5c1.333.667 1.333.667 0 0zM90.5 71.5c1.333.667 1.333.667 0 0z"/><path style="opacity:.008" fill="#fefffe" d="M89.5 72.5h1c.172.992-.162 1.658-1 2v-2z"/><path style="opacity:.014" fill="#fefffe" d="M6.5 74.5c.667 0 1 .333 1 1-.247 2.475-.913 2.475-2 0 .124-.607.457-.94 1-1zM88.5 74.5h1c.073 1.527-.594 2.527-2 3v-2c.667 0 1-.333 1-1z"/><path style="opacity:.027" fill="#dadbda" d="M86.5 77.5h1c-.185.67-.519.67-1 0z"/><path style="opacity:.024" fill="#fefffe" d="M85.5 78.5h1c-.185.67-.519.67-1 0z"/><path style="opacity:.024" fill="#d4d5d4" d="M84.5 79.5h1c-.185.67-.519.67-1 0z"/><path style="opacity:.013" fill="#fefffe" d="M11.5 80.5c.667 0 1 .333 1 1 .667 0 1 .333 1 1 .667 0 1 .333 1 1-1.768 1.007-3.101.34-4-2 .124-.607.457-.94 1-1zM83.5 80.5h1c-.333 2.333-1.667 3.667-4 4v-1c.667 0 1-.333 1-1 .667 0 1-.333 1-1 .667 0 1-.333 1-1z"/><path style="opacity:.024" fill="#d4d5d4" d="M79.5 84.5h1c-.185.67-.519.67-1 0z"/><path style="opacity:.024" fill="#fefffe" d="M78.5 85.5h1c-.185.67-.519.67-1 0z"/><path style="opacity:.027" fill="#dadbda" d="M77.5 86.5h1c-.185.67-.519.67-1 0z"/><path style="opacity:.014" fill="#fefffe" d="M19.5 87.5c.667 0 1 .333 1 1v1c-2.96-.532-3.293-1.199-1-2zM75.5 87.5h2c-.473 1.406-1.473 2.073-3 2v-1c.667 0 1-.333 1-1z"/><path style="opacity:.008" fill="#fefffe" d="M20.5 89.5h2v1c-.992.172-1.658-.162-2-1zM72.5 90.5v-1h2c-.342.838-1.008 1.172-2 1z"/><path style="opacity:.016" fill="#fefffe" d="M22.5 90.5c1.333.667 1.333.667 0 0zM72.5 90.5c-.667.667-.667.667 0 0z"/><path style="opacity:.027" fill="#dadbda" d="M69.5 91.5c1.333.667 1.333.667 0 0z"/><path style="opacity:.02" fill="#fefffe" d="M27.5 92.5v1c-2.667-.333-2.667-.667 0-1zM67.5 93.5v-1h2c-.342.838-1.008 1.172-2 1z"/><path style="opacity:.031" fill="#e9e9e9" d="M27.5 93.5c.992-.172 1.658.162 2 1-.992.172-1.658-.162-2-1z"/><path style="opacity:.012" fill="#f4f4f4" d="M65.5 94.5c.342-.838 1.008-1.172 2-1-.342.838-1.008 1.172-2 1z"/><path style="opacity:.014" fill="#fefffe" d="M29.5 95.5v-1c1.29-.237 2.29.096 3 1h-3zM62.5 95.5c.71-.904 1.71-1.237 3-1v1h-3z"/></svg>