<?xml version="1.0" standalone="no"?><!DOCTYPE svg PUBLIC "-//W3C//DTD SVG 1.1//EN" "http://www.w3.org/Graphics/SVG/1.1/DTD/svg11.dtd"><svg t="1747814536903" class="icon" viewBox="0 0 1024 1024" version="1.1" xmlns="http://www.w3.org/2000/svg" p-id="6650" xmlns:xlink="http://www.w3.org/1999/xlink" width="200" height="200"><path d="M461.890578 0.035038l3.669876-0.009997c3.283994-0.007998 6.567988-0.005998 9.851981 0 3.46094 0.004998 6.921879 0 10.38182-0.002999 5.808221-0.002999 11.616441 0.001 17.424662 0.010996 6.684952 0.010997 13.369904 0.006998 20.054855-0.003999 5.771232-0.008997 11.543463-0.009997 17.315696-0.004998 3.432948 0.002999 6.865897 0.003999 10.298844-0.002999 3.831826-0.004998 7.663652 0.002999 11.494479 0.013996l3.381964-0.011997C573.056521 0.064029 579.960406 0.885777 587.114214 2.293346v1.999387l19.993875 2.999081V6.292121c11.517471 0.779761 11.517471 0.779761 16.994793 2.999081v1.999387c3.079057 0.701785 6.162112 1.383576 9.247167 2.061369l2.64319 0.603815 2.559216 0.555829 2.346281 0.52384c2.362276 0.272916 3.928796-0.115964 6.198101-0.745772 2.139345 0.557829 2.139345 0.557829 4.248699 1.43656l2.139344 0.870734c0.529838 0.22993 1.061675 0.45686 1.609507 0.691788v1.999387c2.182331 0.677792 4.369661 1.341589 6.558991 1.999388l3.690869 1.124655c3.729857 0.870733 6.930877 0.949709 10.742709 0.874732 2.436254 0.999694 2.436254 0.999694 3.998775 1.999387v1.999388c2.433255 0.864735 4.869508 1.716474 7.30976 2.561215l2.09136 0.747771c4.248698 1.519534 4.248698 1.519534 8.593367 0.689789 2.18633 0.936713 2.18633 0.936713 3.998775 1.999387v1.999388c1.787452 0.695787 3.578904 1.381577 5.373354 2.061368l3.022074 1.159645c2.553218 1.086667 2.553218 1.086667 4.60059-0.221932 1.944404 0.776762 1.944404 0.776762 4.123737 1.936407l2.194328 1.152647L723.072561 42.281095v1.999387c4.094746 2.036376 8.200488 4.049759 12.308229 6.060144l3.535917 1.759461 3.388962 1.649494 3.124043 1.539529c2.683178 1.320595 2.683178 1.320595 5.634274-0.011997l1.999387 0.999694v2.999081l5.998162 0.999694v1.999387l2.624196 0.249924c3.88481 0.862736 6.258083 2.301295 9.372129 4.748545v1.999388l1.679486 0.839742L781.054797 74.271294l2.061369 0.374885L785.053572 75.270988l0.999694 2.999081 2.249311 0.249924c3.321982 0.905723 4.453636 2.232316 6.747933 4.748545 2.649188 2.235315 4.608588 3.320983 7.997549 3.998775l1.999388 0.999693v2.999082c0.721779 0.289911 1.442558 0.576823 2.18633 0.874732L810.045916 93.265475c0.865735 0.289911 1.73147 0.576823 2.624196 0.874732 2.769152 1.311598 3.642884 2.641191 5.373353 5.12343 2.216321 1.920412 3.901805 2.965092 6.684952 3.935795L827.040709 104.262106l0.436866 1.999388 0.562828 1.999387c1.994389 0.679792 3.994776 1.344588 5.998162 1.999387 1.124655 2.061368 1.124655 2.061368 1.999388 3.998775 2.02338 0.6518 2.02338 0.6518 3.998774 0.999694l0.999694 1.999388 1.874426 0.874732c2.510231 1.329593 3.435947 2.87312 5.12343 5.12343l1.936407 0.936713c2.793144 1.439559 4.11374 3.626889 6.061143 6.061143l1.89342 0.940712c2.387269 1.200632 3.914801 2.601203 5.791226 4.494623l1.823441 1.809445c1.489544 1.752463 1.489544 1.752463 2.489238 4.751545l1.873426 0.874732C872.026927 144.249855 872.026927 144.249855 873.463487 146.686109c1.386575 2.719167 1.386575 2.719167 4.061755 4.061755 2.959093 1.775456 3.770845 3.569906 5.498316 6.49801a179.554991 179.554991 0 0 0 3.998775 1.999387c3.186024 2.753157 5.649269 4.953482 6.997856 8.997244l2.999081 2.499234c2.999081 2.499234 2.999081 2.499234 3.998775 5.498316 1.569519 1.481546 1.569519 1.481546 3.435947 2.874119 3.019075 2.476241 4.401651 4.326674 5.561296 8.122512 2.031378 2.162338 2.031378 2.162338 4.998469 3.998774l0.311905 2.374273c0.869734 3.314984 2.240314 3.608894 5.008465 5.356359 3.139038 2.370274 5.233397 5.579291 7.487706 8.764315l1.482546 2.011384c2.2843 3.16603 3.925797 5.608282 4.703559 9.485094h1.999387c1.479547 2.019381 1.479547 2.019381 3.186024 4.810526l1.879425 3.034071A5429.166695 5429.166695 0 0 0 943.005182 230.223516c4.652575 7.468712 4.652575 7.468712 9.684033 14.682502 2.083362 2.859124 3.618891 5.799223 5.131428 8.989246 2.042374 4.018769 4.442639 7.8336 6.78792 11.680421C965.998137 268.211878 965.998137 268.211878 965.998137 271.210959h1.999388c1.856431 3.13404 2.200326 5.373354 1.999387 8.997243h1.999388a444.473829 444.473829 0 0 1 2.999081 5.185412l1.686483 2.917106c1.334591 2.943098 1.591512 4.712556 1.312598 7.892582h1.999388v4.998469h1.999387c3.083055 5.392348 4.554605 9.787002 4.998469 15.995099h1.999387l0.999694 5.998163h1.999387c2.203325 4.553605 2.587207 9.027234 2.999081 13.995712h1.999388a938.419501 938.419501 0 0 1 3.498928 9.49709l1.01069 2.686177c2.006385 5.568294 2.765153 9.903966 2.489238 15.808157 1.006692 2.809139 1.332592 3.665877 3.998775 4.998469 0.712782 2.15334 0.712782 2.15334 1.365581 5.002467l0.739774 3.162032 0.767764 3.39396a4874.263698 4874.263698 0 0 1 2.378272 10.265855 359.824762 359.824762 0 0 0 2.026379 8.174495l0.566826 2.176334c0.491849 1.869427 0.989697 3.738855 1.487545 5.606282 0.659798 3.182025 0.864735 5.965172 0.663796 9.20418l-0.999694 0.999694c0.145955 1.953402 0.145955 1.953402 0.55783 4.252697 0.139957 0.853738 0.276915 1.707477 0.419871 2.587207l0.459859 2.719167 0.445863 2.732163c0.366888 2.235315 0.739773 4.469631 1.115659 6.702947h1.999387c1.635499 8.314453 2.289299 16.266017 2.259308 24.730423 0.001999 1.210629 0.005998 2.422258 0.009997 3.669876 0.005998 3.283994 0.004998 6.567988-0.001999 9.851982-0.004998 3.46094 0 6.921879 0.002999 10.381819 0.003999 5.808221 0 11.616441-0.009997 17.424662a6386.043542 6386.043542 0 0 0 0.002999 20.054856c0.009997 5.771232 0.009997 11.543463 0.004998 17.315695-0.002999 3.432948-0.002999 6.865897 0.002999 10.298845 0.004998 3.831826-0.001999 7.663652-0.012996 11.496477l0.011997 3.379965c-0.038988 7.291766-0.862736 14.195651-2.269305 21.349459h-1.999388l-2.999081 19.993875h0.999694c-0.361889 8.517391-2.21832 16.454959-4.398653 24.656446a324.033728 324.033728 0 0 0-1.869427 7.770619l-0.6518 2.767153a503.150852 503.150852 0 0 0-1.23962 5.406343l-0.592819 2.476242-0.509843 2.213322L1007.985274 654.093657l-2.999081 0.999694-0.437866 3.560909c-0.181944 1.479547-0.369887 2.959093-0.561828 4.436641l-0.343895 3.219013c-0.774763 4.462633-2.152341 8.475403-3.717861 12.713106-0.279914 0.779761-0.562828 1.559522-0.852738 2.361276-0.688789 1.901417-1.385576 3.800836-2.083362 5.699254h-1.999388l-0.148954 1.792451c-0.415873 4.396653-0.899724 8.173496-2.849127 12.203261h-1.999388l-0.999693 5.998163h-1.999388l-0.332898 1.975395c-0.932714 5.142425-2.015383 9.440108-4.66657 14.019704h-1.999387v4.998469h-1.999388l-0.187942 2.936101c-0.668795 4.943485-3.237008 8.871282-5.81022 13.058999h-1.999388l-0.437866 3.373966C968.997218 751.063949 968.997218 751.063949 967.997525 753.063336h-1.999388l-0.229929 2.039375c-1.019688 3.921798-2.9391 6.91888-5.081443 10.331835l-2.362277 3.834825-1.182637 1.911415a193.374757 193.374757 0 0 0-3.164031 5.429336c-1.989391 3.470937-4.104742 6.840904-6.287074 10.192878a674.928226 674.928226 0 0 0-10.273852 16.330996L936.007325 805.04741h-1.999387l-0.702785 2.05737c-1.618504 3.669876-3.724859 6.743934-6.045148 10.000936l-1.265612 1.853432c-2.87312 4.051759-5.760235 6.369049-9.980942 9.081218a126.219331 126.219331 0 0 0-1.999388 5.998162c-2.062368 1.124655-2.062368 1.124655-3.998775 1.999388-0.199939 0.886728-0.199939 0.886728-0.406875 1.792451-0.755768 2.810139-2.08836 4.2417-4.028766 6.392041l-1.871426 2.105355c-1.689482 1.706477-1.689482 1.706477-3.68887 2.706171l-0.875732 1.874426c-1.329593 2.511231-2.87312 3.435947-5.12343 5.12343l-0.909721 1.86243c-1.219626 2.392267-2.623196 3.935794-4.526614 5.822216l-1.807446 1.824441C885.022945 867.028421 885.022945 867.028421 882.023864 868.028115l-0.812751 1.811445C880.024477 872.02689 880.024477 872.02689 877.087376 873.963297c-3.205018 2.159338-4.168723 3.794837-6.060143 7.060837-1.324594 0.681791-2.657186 1.349587-3.998775 1.999387l-0.874732 1.749464c-1.675487 3.349974-4.246699 5.868202-7.122818 8.247473l-2.999081 0.999694-2.499234 2.999081c-2.499234 2.999081-2.499234 2.999081-5.498316 3.998775l-2.499234 2.999081c-2.499234 2.999081-2.499234 2.999081-5.498316 3.998775l-0.999693 1.999388-1.937407 0.374885L835.038259 911.014945l-0.937713 1.999388-1.061675 1.999387c-2.624196 0.74977-2.624196 0.74977-4.998468 0.999694l-0.187943 1.874426C827.040709 920.012189 827.040709 920.012189 824.728417 921.073864L822.04224 922.011576c-2.509231 1.647495-4.320676 3.345975-6.373047 5.560297-2.844129 2.641191-4.946485 3.373966-8.622359 4.436641l-1.999387 1.999387v1.999388c-2.551218 1.020687-5.071446 2.02338-7.685645 2.874119-2.455248 0.903723-2.455248 0.903723-3.310986 3.124043-0.999694 1.999387-0.999694 1.999387-3.498928 3.186024L788.052654 946.004226c-2.166336 0.832745-2.166336 0.832745-2.999082 2.999081-1.324594 0.364888-2.659185 0.693787-3.998775 0.999694a87.676139 87.676139 0 0 0-3.998775 1.999387l-5.998162 2.999082v1.999387c-1.609507 1.253616-1.609507 1.253616-3.748851 2.561215l-2.109354 1.316597c-2.071365 1.084668-3.867815 1.621503-6.13812 2.12035a88.719819 88.719819 0 0 0-3.998775 1.999388l-1.999387 0.999694-1.999387 2.999081-2.999082-0.999694c-2.758155 0.983699-2.758155 0.983699-5.760235 2.526226l-3.387962 1.650494-3.535917 1.759461-3.570906 1.746465c-2.917106 1.429562-5.828214 2.867122-8.737323 4.313679v1.999387a258.964662 258.964662 0 0 1-3.811832 2.061369l-2.143343 1.159644C715.075011 985.991975 715.075011 985.991975 712.07593 984.992281c-2.517229 0.640804-2.517229 0.640804-5.12343 1.749464l-2.695175 1.04668c-2.508232 1.063674-2.508232 1.063674-3.178026 4.201713-3.153034 0.700785-5.726246 0.999694-8.997243 0.999693a104.757906 104.757906 0 0 0-6.186105 1.811445l-3.229011 1.019688L680.085731 996.988606l-0.999694 2.999081c-3.059063 0.52184-6.102131 1.01169-9.185186 1.374579a120.769001 120.769001 0 0 0-9.684033 1.999388l-2.866122 0.710782L655.093388 1004.986156l-0.999694 2.999081c-5.935182 2.282301-5.935182 2.282301-9.150197 1.425563-4.271691-0.638804-8.000549 0.496848-12.156276 1.510538l-2.532224 0.591818c-2.053371 0.480853-4.102743 0.974701-6.152115 1.47055v1.999387c-11.846371 3.540915-11.846371 3.540915-16.994793 2.999081l-0.999694-0.999693c-1.954401 0.145955-1.954401 0.145955-4.252697 0.557829-0.853738 0.139957-1.707477 0.277915-2.587208 0.419871l-2.719167 0.459859c-0.901724 0.146955-1.803447 0.29391-2.732163 0.446863-2.235315 0.365888-4.468631 0.737774-6.702946 1.114659v1.999387c-8.314453 1.635499-16.267016 2.289299-24.731423 2.259308-1.209629 0.001999-2.421258 0.005998-3.668876 0.009997-3.284994 0.005998-6.567988 0.004998-9.852982-0.001999-3.46094-0.004998-6.92088 0-10.381819 0.002999-5.808221 0.003999-11.616441 0-17.423662-0.009997-6.684952-0.009997-13.369904-0.007998-20.053856 0.002999-5.773231 0.009997-11.544463 0.010997-17.316695 0.004998-3.432948-0.002999-6.865897-0.002999-10.299844 0.003-3.830826 0.004998-7.662652-0.001999-11.494479-0.012996l-3.380964 0.011996c-7.291766-0.038988-14.195651-0.862736-21.349459-2.269305v-1.999387l-19.993875-2.999082v0.999694c-11.518471-0.779761-11.518471-0.779761-16.994793-2.999081v-1.999387a1271.640414 1271.640414 0 0 0-9.247167-2.063368l-2.64419-0.602816-2.557217-0.556829-2.34828-0.52384c-2.362276-0.271917-3.927797 0.116964-6.196102 0.746772-2.139345-0.558829-2.139345-0.558829-4.248699-1.43756l-2.139344-0.869733L369.180981 1006.985543v-1.999387a718.334928 718.334928 0 0 0-6.56099-1.999387c-1.217627-0.369887-2.435254-0.742772-3.68887-1.124656-3.730857-0.871733-6.932876-0.949709-10.743708-0.874732-2.437253-0.999694-2.437253-0.999694-3.998775-1.999387v-1.999388a944.342687 944.342687 0 0 0-7.31076-2.562215l-2.09136-0.747771c-4.246699-1.518535-4.246699-1.518535-8.592367-0.688789-2.18733-0.937713-2.18733-0.937713-3.998775-1.999387v-1.999388a646.409963 646.409963 0 0 0-5.373354-2.062368l-3.023074-1.159645c-2.553218-1.085667-2.553218-1.085667-4.598591 0.222932-1.946404-0.777762-1.946404-0.777762-4.124736-1.937406l-2.195328-1.151647L301.201807 981.9932v-1.999387a2192.748219 2192.748219 0 0 0-12.309228-6.061143l-3.535917-1.758462c-1.117658-0.544833-2.235315-1.089666-3.387962-1.649494l-3.125043-1.539529c-2.683178-1.321595-2.683178-1.321595-5.633274 0.011997l-1.999387-0.999694v-2.999081l-5.998163-0.999694v-1.999387l-2.624196-0.249924c-3.88481-0.863735-6.258083-2.302295-9.372129-4.748545v-1.999387l-1.679485-0.839743L243.219571 950.003001l-2.062368-0.374885L239.220796 949.003307l-0.999693-2.999081-2.249311-0.249923c-3.322982-0.906722-4.454635-2.233316-6.747933-4.748546-2.649188-2.235315-4.608588-3.320983-7.99755-3.998775l-1.999387-0.999693v-2.999082l-2.18733-0.874732c-0.927716-0.369887-1.855432-0.742772-2.811139-1.124655l-2.624196-0.874732c-2.752157-1.303601-3.671875-2.648189-5.373354-5.12343a56.658642 56.658642 0 0 0-6.997856-3.998775l-1.999387-0.999694-0.249924-1.937406L196.233966 916.013414a490.129842 490.129842 0 0 0-5.998162-1.999387c-1.124655-2.062368-1.124655-2.062368-1.999388-3.998775-2.02438-0.6518-2.02438-0.6518-3.998775-0.999694l-0.999694-1.999387-1.874425-0.874732c-2.511231-1.329593-3.435947-2.87312-5.123431-5.123431l-1.937406-0.937713c-2.792145-1.438559-4.11274-3.625889-6.060144-6.060143l-1.863429-0.905722c-2.603202-1.332592-4.278689-3.007079-6.322063-5.09244-0.694787-0.699786-1.388575-1.40257-2.104355-2.124349C156.246217 884.023215 156.246217 884.023215 155.246523 882.023827a181.701333 181.701333 0 0 0-3.998775-3.998775l-10.996631-10.996631a716.092614 716.092614 0 0 0-5.342363-4.365662c-1.784453-1.759461-2.569213-3.39496-3.654881-5.631275l-2.499234-1.999387c-2.539222-2.031378-3.097051-3.194021-4.498622-5.998163a533.434574 533.434574 0 0 0-4.998468-3.998775c-3.022074-3.114046-4.942486-5.772232-5.998163-9.996937l-1.999387-0.937713-1.999388-1.061674-0.374885-2.374273c-0.797756-3.348974-2.169335-3.605895-4.944485-5.356359-3.139038-2.369274-5.235396-5.578291-7.489705-8.764315l-1.481546-2.011384C92.685689 811.365475 91.043193 808.926222 90.266431 805.04741h-1.999388c-1.479547-2.019381-1.479547-2.019381-3.187023-4.811526l-1.878425-3.03407L81.269187 794.050779c-4.587595-7.37774-4.587595-7.37774-9.560071-14.495559-2.696174-3.694868-4.79853-7.674649-6.942873-11.706413-1.792451-3.350973-3.690869-6.632968-5.607282-9.911964C58.276231 756.062417 58.276231 756.062417 58.276231 753.063336h-1.999387c-1.857431-3.13404-2.201326-5.373354-1.999388-8.997243h-1.999387a453.026209 453.026209 0 0 1-2.999081-5.186411l-1.687483-2.917107c-1.333591-2.942099-1.589513-4.711557-1.311598-7.891582h-1.999388v-4.998469h-1.999387c-3.084055-5.393348-4.555604-9.787002-4.998469-15.995099h-1.999388l-0.999693-5.998163h-1.999388c-2.203325-4.553605-2.588207-9.026235-2.999081-13.995712h-1.999387a923.385107 923.385107 0 0 1-3.498928-9.49709l-1.01169-2.687177c-2.006385-5.568294-2.764153-9.902966-2.487238-15.807157-1.008691-2.809139-1.333591-3.665877-3.998775-4.998469-1.799449-4.79853-2.164337-8.782309-1.874426-13.882747-0.145955-2.462246-0.899724-3.993776-2.124349-6.111128h-0.999694c-0.119963-0.6518-0.242926-1.3046-0.366888-1.976394-1.056676-5.555298-1.056676-5.555298-2.695174-10.956643-1.399571-4.572599-1.82944-9.283156-1.936407-14.058693l0.999694-0.999694c-0.146955-1.954401-0.146955-1.954401-0.558829-4.252697l-0.419871-2.587207c-0.149954-0.897725-0.302907-1.79545-0.45886-2.719167l-0.446863-2.732163C5.040541 591.582808 4.668655 589.348493 4.29277 587.114177H2.293382c-1.636499-8.314453-2.289299-16.267016-2.258308-24.730423l-0.009997-3.668876c-0.007998-3.285993-0.005998-6.569987 0-9.853981 0.004998-3.46094 0-6.92088-0.002999-10.38182-0.002999-5.808221 0.001-11.615441 0.010997-17.423662 0.010997-6.684952 0.006998-13.369904-0.003999-20.053856-0.008997-5.773231-0.009997-11.544463-0.004998-17.316695 0.002999-3.432948 0.003999-6.865897-0.002999-10.299844-0.004998-3.830826 0.002999-7.662652 0.013995-11.494479l-0.011996-3.380964C0.061066 451.217811 0.885814 444.313926 2.293382 437.160118h1.999388l2.999081-19.993875H6.292157c0.395879-9.347136 2.575211-18.008483 4.998469-26.99173h1.999387l0.182944-1.722473C15.023482 374.163418 15.023482 374.163418 17.288788 369.180944h1.999388l0.436866-3.561908c0.181944-1.479547 0.369887-2.958094 0.562828-4.435642l0.342895-3.218014c0.774763-4.463633 2.15334-8.476403 3.71886-12.715104l0.852739-2.359277c0.687789-1.903417 1.384576-3.801835 2.083362-5.700254h1.999387c0.049985-0.591819 0.09797-1.183637 0.147955-1.792451 0.415873-4.396653 0.900724-8.173496 2.851126-12.203261h1.999388l0.999693-5.998163h1.999388l0.331898-1.976394c0.932714-5.141425 2.015383-9.439108 4.666571-14.018705h1.999387v-4.998469h1.999388l0.186942-2.9371c0.669795-4.942486 3.239008-8.870282 5.81122-13.058h1.999387l0.436867-3.373966C55.27715 273.210346 55.27715 273.210346 56.276844 271.210959h1.999387l0.22993-2.038376c1.019688-3.923798 2.9391-6.92088 5.080443-10.332834 0.789758-1.277609 1.575517-2.556217 2.363276-3.834825l1.182638-1.912414a191.714266 191.714266 0 0 0 3.163031-5.425338c1.999387-3.486932 4.105742-6.884891 6.288074-10.258857l1.17464-1.819443C87.471287 220.623457 87.471287 220.623457 90.266431 219.226885l0.827746-2.119351c1.505539-3.698867 3.610894-6.699947 5.920186-9.939955l1.264613-1.852432c2.874119-4.051759 5.760235-6.368049 9.981942-9.081218a126.598215 126.598215 0 0 0 1.999387-5.998162c2.061368-1.124655 2.061368-1.124655 3.998775-1.999388l0.405876-1.792451c0.755768-2.811139 2.08936-4.2417 4.029765-6.393041l1.870427-2.104355C122.25663 176.240055 122.25663 176.240055 124.256017 175.240361l0.874732-1.874426c1.329593-2.511231 2.87312-3.435947 5.123431-5.12343l0.909721-1.86243c1.220626-2.393267 2.622197-3.935794 4.525614-5.823216l1.809445-1.823441C139.251423 157.245874 139.251423 157.245874 142.250505 156.24618l0.811751-1.812445C144.249892 152.247405 144.249892 152.247405 147.185992 150.309999c3.206018-2.158339 4.169723-3.793838 6.061144-7.059838a175.331285 175.331285 0 0 1 3.998774-1.999387l0.874732-1.749464c2.15534-4.311679 5.554298-7.724633 10.121899-9.247167l2.499235-2.999081c2.499234-2.999081 2.499234-2.999081 5.498315-3.998775l2.499235-2.999081c2.499234-2.999081 2.499234-2.999081 5.498315-3.998775l0.999694-1.999388 1.936407-0.374885L189.23611 113.25935l0.936713-1.999388 1.062674-1.999387c2.624196-0.74977 2.624196-0.74977 4.998469-0.999694l0.186943-1.874426C197.23366 104.262106 197.23366 104.262106 199.544952 103.199432L202.232128 102.262719c2.510231-1.647495 4.320676-3.345975 6.373048-5.561297 2.843129-2.639191 4.945485-3.373966 8.622358-4.435641l1.999388-1.999387v-1.999388l2.124349-0.812751c3.063062-1.264613 5.988165-2.54722 8.872282-4.185717l0.999693-2.999081c2.436254-1.124655 2.436254-1.124655 4.998469-1.999388 2.165337-0.833745 2.165337-0.833745 2.999081-2.999081l1.936407-0.437866c2.444251-0.42387 2.444251-0.42387 4.061756-3.560909 1.99239-0.373885 3.991777-0.707783 5.998162-0.999694a83.307478 83.307478 0 0 0 3.748851-3.998775c2.629195-2.337284 4.889502-3.049066 8.247474-3.998775l1.999387-0.999693 5.998163-2.999081v-1.999388c2.489237-0.68679 4.378659-0.999694 6.997856-0.999694 4.298683-1.72947 8.444413-3.803835 12.621133-5.811219l3.545914-1.657493 3.365968-1.609506 3.099051-1.476548c2.664184-1.279608 2.664184-1.279608 3.359971-4.44064 3.455941-1.216627 6.326062-1.999387 9.996937-1.999387 2.042374-0.532837 2.042374-0.532837 4.123737-1.312598l2.132346-0.737774c2.099357-0.887728 2.099357-0.887728 2.74116-3.94779 3.152034-0.699786 5.725246-0.999694 8.997244-0.999694a103.981144 103.981144 0 0 0 6.185105-1.812445l3.230011-1.018688L344.188638 27.285689l0.999694-2.999081 2.456247-0.331899C358.644209 22.545141 358.644209 22.545141 369.180981 19.288139l0.999694-2.999081c5.935182-2.2833 5.935182-2.2833 9.149197-1.425563 4.271691 0.639804 8.000549-0.497847 12.156275-1.511537l2.532225-0.591819c2.053371-0.479853 4.103743-0.973702 6.153115-1.46955V9.291202c11.846371-3.540915 11.846371-3.540915 16.994793-2.999081l0.999694 0.999693c1.953402-0.145955 1.953402-0.145955 4.252697-0.558828l2.587207-0.419872c0.896725-0.149954 1.79445-0.302907 2.719167-0.458859l2.732163-0.446863c2.235315-0.366888 4.468631-0.738774 6.702947-1.114659V2.293346c8.314453-1.636499 16.266017-2.289299 24.730423-2.258308zM454.154948 1.294652l3.998775 0.999693z m111.965698 0l3.998775 0.999693zM446.157398 2.293346v0.999693h7.99755V2.293346h-7.99755z m123.962023 0v0.999693h7.997549V2.293346h-7.997549zM70.272556 249.217697l0.999694 1.999387z m882.729563 0l0.999694 1.999387zM62.275006 263.213409l0.999694 1.999387z m898.724663 0l0.999693 1.999387zM42.281132 304.200852l0.999693 1.999387z m938.712411 0l0.999694 1.999387zM35.283275 320.195952l0.999694 1.999387z m952.708124 0l0.999694 1.999387z m-953.707817 2.999081l0.999693 1.999387z m954.707511 0l0.999694 1.999387z m-957.706592 5.998162l0.999693 1.999388z m960.705673 0l0.999694 1.999388zM27.285726 341.18952l0.999693 1.999387z m968.703223 0l0.999694 1.999387z m-969.702917 2.999081l0.999694 2.999081z m970.702611 0l0.999694 2.999081z m-973.701692 7.99755l0.999693 1.999387z m976.700773 0l0.999694 1.999387z m-977.700467 2.999081l0.999694 1.999388z m978.700161 0l0.999694 1.999388z m-979.699855 2.999081l0.999694 2.999081z m980.699549 0l0.999693 2.999081zM15.289401 378.178188l0.999694 2.999081z m992.695873 0l0.999694 2.999081z m0.999694 2.999081v4.998469h0.999693v-4.998469h-0.999693z m0.999693 4.998469l0.999694 3.998775z m0.999694 4.998468l0.999694 3.998775zM11.290626 396.172675l0.999694 3.998775z m1000.693423 0l0.999694 3.998775zM10.290932 400.17145l0.999694 3.998775z m1002.692811 0l0.999693 3.998775zM9.291239 405.169919l0.999693 1.999387z m1004.692197 0l0.999694 1.999387zM8.291545 410.168387l0.999694 1.999388z m1006.691585 0l0.999694 1.999388zM2.293382 446.157361v7.99755h0.999694v-7.99755H2.293382z m1018.68791 0v7.99755h0.999694v-7.99755h-0.999694zM1.293689 454.154911l0.999693 3.998775z m1020.687297 0l0.999694 3.998775zM1.293689 566.120609l0.999693 3.998775z m1020.687297 0l0.999694 3.998775zM2.293382 570.119384v7.99755h0.999694v-7.99755H2.293382z m1018.68791 0v7.99755h0.999694v-7.99755h-0.999694zM8.291545 612.10652l0.999694 1.999388z m1006.691585 0l0.999694 1.999388zM9.291239 617.104989l0.999693 1.999388z m1004.692197 0l0.999694 1.999388zM10.290932 620.10407l0.999694 3.998775z m1002.692811 0l0.999693 3.998775zM11.290626 624.102845l0.999694 3.998775z m1000.693423 0l0.999694 3.998775z m-0.999694 4.998469l0.999694 3.998775z m-0.999694 4.998468l0.999694 3.998775z m-0.999693 3.998775v4.998469h0.999693v-4.998469h-0.999693z m-993.695567 4.998469l0.999694 2.999081z m992.695873 0l0.999694 2.999081zM21.287563 663.090901l0.999694 2.999081z m980.699549 0l0.999693 2.999081z m-979.699855 3.998775l0.999694 1.999387z m978.700161 0l0.999694 1.999387z m-977.700467 2.999081l0.999693 1.999387z m976.700773 0l0.999694 1.999387z m-973.701692 6.997856l0.999694 2.999081z m970.702611 0l0.999694 2.999081z m-969.702917 3.998775l0.999693 1.999387z m968.703223 0l0.999694 1.999387zM31.284501 693.081713l0.999693 1.999387z m960.705673 0l0.999694 1.999387z m-957.706592 5.998162l0.999693 1.999387z m954.707511 0l0.999694 1.999387z m-953.707818 2.999081l0.999694 1.999388z m952.708124 0l0.999694 1.999388zM42.281132 718.074056l0.999693 1.999387z m938.712411 0l0.999694 1.999387zM62.275006 759.061499l0.999694 1.999387z m898.724663 0l0.999693 1.999387zM70.272556 773.057211l0.999694 1.999387z m882.729563 0l0.999694 1.999387z m-506.844721 247.924045v0.999693h7.99755v-0.999693h-7.99755z m123.962023 0v0.999693h7.997549v-0.999693h-7.997549z m-115.964473 0.999693l3.998775 0.999694z m111.965698 0l3.998775 0.999694z" fill="#EFEFEF" p-id="6651"></path><path d="M565.120952 33.283851l3.019075 0.324901c12.787082 1.409568 25.332239 3.583902 37.912385 6.252084 2.653187 0.542834 5.318371 0.984698 7.991552 1.420565 4.868508 0.862736 9.453104 2.336284 14.155663 3.846822 8.164499 2.505232 16.574922 4.238701 24.894373 6.150115v1.999388l3.019075 0.35889c4.007772 0.575824 7.813606 1.656493 11.664427 2.890114l2.124349 0.673794c6.218095 2.013383 12.186267 4.475629 18.18143 7.073833 2.828134 1.17664 5.663265 2.337284 8.497396 3.498928l4.412648 1.823441c2.38327 0.982699 4.769539 1.943405 7.169804 2.882117 8.756317 3.470937 16.975799 7.892582 25.254263 12.359214 2.753157 1.484545 5.511312 2.956094 8.270466 4.428643 10.432804 5.597285 20.509717 11.442494 30.369696 17.994487 1.810445 1.127655 3.62189 2.25231 5.436334 3.373967 7.105823 4.522614 13.821765 9.567069 20.555703 14.62052l2.104355 1.572519c9.952951 7.451717 19.570004 15.185348 28.88615 23.419825l2.843129 2.503233c4.249698 3.782841 8.360439 7.647657 12.33922 11.713411 1.792451 1.758461 3.650881 3.382964 5.565295 5.007466 4.122737 3.587901 7.856593 7.435722 11.55446 11.454491a2573.767488 2573.767488 0 0 1 5.870202 6.346056 697.260384 697.260384 0 0 0 4.841516 5.177413c6.239089 6.668957 11.949339 13.614829 17.493641 20.85861a916.581192 916.581192 0 0 0 4.702559 6.059144c6.550993 8.423419 12.740097 16.984796 18.528324 25.94905a534.479254 534.479254 0 0 0 3.839824 5.806221C942.005488 289.357399 942.005488 289.357399 942.005488 297.202996H82.268881c1.538529-4.614586 3.201019-8.588369 5.498315-12.808076l1.063674-1.966398c16.372984-30.015804 35.901001-59.544758 59.151878-84.718045a333.839723 333.839723 0 0 0 5.569294-6.264081c10.944647-12.536159 22.608074-24.272564 34.86132-35.526116a813.907647 813.907647 0 0 0 4.622584-4.285687c6.117126-5.637273 12.616135-10.747707 19.19312-15.828151a792.730135 792.730135 0 0 0 6.369048-5.013464c8.713331-6.888889 17.530629-13.41489 26.880765-19.412053a451.054813 451.054813 0 0 0 4.937487-3.241007c14.518552-9.545076 29.581937-18.426355 45.099184-26.245959l2.243312-1.136652C300.748946 79.287757 302.82431 78.270069 306.200276 78.270069v-1.999387c2.245312-1.008691 4.494623-2.006385 6.747933-2.999082l1.921411-0.866734C318.280575 70.912323 320.403925 70.272519 324.194763 70.272519v-1.999387l1.584515-0.578823c2.430255-0.888728 4.859511-1.779455 7.287767-2.670182l2.660185-0.975701c4.247699-1.564521 8.471405-3.152034 12.648125-4.897499 6.150116-2.507232 12.527162-4.352666 18.878217-6.279077a301.957491 301.957491 0 0 0 5.071446-1.624502c7.917574-2.574211 15.946115-4.433642 24.070625-6.217095 4.984473-1.095664 9.878973-2.301295 14.772475-3.748852 6.350055-1.653493 12.759091-2.558216 19.2561-3.436947 3.576904-0.537835 7.071833-1.249617 10.60975-1.999387C481.039711 28.179415 524.770314 28.763236 565.120952 33.283851z" fill="#1C1C1E" p-id="6652"></path><path d="M82.268881 727.071299h859.736607c-8.104517 20.262792-20.630679 39.084026-32.989893 56.982543l-1.3056 1.902417c-6.740935 9.795999-13.798773 19.240106-21.338463 28.435288a411.137042 411.137042 0 0 0-3.609894 4.503621c-5.917187 7.414728-12.361213 14.281625-18.875217 21.166515a722.0148 722.0148 0 0 0-5.585289 6.020156c-10.700722 11.62144-10.700722 11.62144-16.553929 16.486949-1.785453 1.524533-3.39396 3.145036-5.021461 4.834519-3.666877 3.724859-7.666651 6.963867-11.735405 10.238863-2.973089 2.402264-5.898193 4.854513-8.821297 7.318757C798.242532 899.884355 779.18637 913.224269 759.061535 925.010658l-2.567213 1.507538c-11.273546 6.597979-22.661057 12.803078-34.421455 18.486336l-2.245312 1.210629C718.074092 947.00392 718.074092 947.00392 715.075011 947.00392v1.999387c-2.372273 0.948709-4.745546 1.897419-7.118819 2.843129a524.689254 524.689254 0 0 0-5.662265 2.311292l-2.652187 1.093665-2.432255 1.015689C695.081137 957.000857 695.081137 957.000857 692.082056 957.000857v1.999387l-3.725859 1.206631-4.8965 1.604508-2.44825 0.791758c-3.473936 1.14365-6.729938 2.298296-10.004935 3.941792-3.567907 1.776456-7.14881 2.823135-10.976637 3.889808-1.530531 0.434867-3.060063 0.870733-4.588594 1.3076l-2.261307 0.643802c-2.757155 0.805753-5.479321 1.711476-8.208485 2.609201-7.937568 2.467244-16.069077 4.068753-24.195588 5.775231-3.300989 0.697786-6.577985 1.429562-9.840985 2.288299-11.03262 2.87112-22.182204 4.279689-33.483742 5.626276l-3.953788 0.473855-3.574905 0.414873c-2.748158 0.26092-2.748158 0.26092-4.801529 1.416566-5.253391 0.536836-10.535772 0.776762-15.807157 1.061675l-2.453249 0.132959c-32.34809 1.69748-64.517234 1.656493-96.704373-2.194328l-4.253697-0.477854c-1.429562-0.164949-2.858124-0.331898-4.286686-0.498847l-3.88581-0.446863c-3.384963-0.545833-6.344056-1.432561-9.567069-2.575211a252.722575 252.722575 0 0 0-7.99755-1.437559c-18.90021-3.229011-38.240285-7.065835-56.013839-14.409586-3.299989-1.276609-6.613974-2.21932-10.027928-3.147036-7.293765-2.009384-14.079686-4.79753-20.958579-7.916574a256.024563 256.024563 0 0 0-13.902741-5.765234c-10.225867-3.933795-19.853917-8.566376-29.435982-13.864752-2.832132-1.561522-5.67826-3.096051-8.524388-4.631581C266.367479 926.690143 252.196821 917.6929 238.221103 908.015864l-2.158339-1.483545c-8.691337-5.991165-16.952806-12.462182-25.131301-19.12914a517.077586 517.077586 0 0 0-4.563602-3.649882c-6.771925-5.407343-13.079993-11.240556-19.373065-17.189733a393.852338 393.852338 0 0 0-7.075832-6.536998c-8.131509-7.325756-15.639209-15.132364-23.031944-23.199892a820.338677 820.338677 0 0 0-4.201712-4.53761c-5.718248-6.208098-10.885665-12.79408-16.043085-19.465036a327.921536 327.921536 0 0 0-4.005773-5.011465c-17.884521-22.095231-32.846937-46.540742-46.189849-71.583069a121.724708 121.724708 0 0 0-3.018076-5.167417C82.268881 729.070687 82.268881 729.070687 82.268881 727.071299z" fill="#FEB003" p-id="6653"></path><path d="M962.999056 751.063949h1.999388c1.047679 3.273997 1.137651 4.669569-0.214935 7.892582l-1.722472 2.916106-1.713475 2.957094L959.999975 767.059048h-4.998469c2.181332-8.956256 2.181332-8.956256 6.186105-11.558458L963.99875 754.06303l-0.999694-2.999081z m-1.999387 7.99755l0.999693 1.999387z" fill="#E2E2E2" p-id="6654"></path><path d="M551.12524 1019.981562h9.996937v1.999387c4.37366 0.090972 8.657348 0.120963 12.996018-0.499846s8.622358-0.590819 12.996019-0.499847v0.999693c-9.732018 2.100357-19.098149 2.210323-28.991118 1.999388l-0.999694-1.999388c-3.028072-0.657798-3.028072-0.657798-5.998162-0.999693v-0.999694zM967.997525 741.067012l1.999387 0.999693c0.285912 7.426725 0.285912 7.426725-1.999387 10.996631l-4.998469-1.999387c0.642803-1.479547 1.288605-2.958094 1.937407-4.436641l1.088666-2.495236C966.997831 742.066705 966.997831 742.066705 967.997525 741.067012zM477.147904 1020.981256h19.993874l-3.998775 1.999387-0.999693 0.999694c-1.765459 0.151953-3.538916 0.221932-5.310373 0.249923l-2.925104 0.077976C481.146679 1023.980337 481.146679 1023.980337 477.147904 1020.981256zM1020.981292 527.132553h0.999694l0.999694 5.998163h0.999694c0.053983 1.582515 0.092972 3.16503 0.124961 4.748545l0.069979 2.671182c-0.203938 2.691176-0.828746 4.27569-2.194328 6.575985h-0.999694v-19.993875zM32.284194 689.082938h1.999388c1.256615 2.90511 1.999387 4.794531 1.999387 7.997549l-1.999387 0.999694v2.999081h-1.999388c-2.031378-4.062755-2.098357-6.601977-0.999693-10.996631l0.999693-0.999693z m-0.999693 3.998775l0.999693 1.999387zM928.009776 813.04496c0 2.999081 0 2.999081-2.311292 5.560297C920.806982 823.041897 920.806982 823.041897 917.013145 823.041897c1.824441-4.070753 3.462939-6.340058 7.622664-8.122511L927.010082 814.044654l0.999694-0.999694z" fill="#EFEFEF" p-id="6655"></path><path d="M1020.981292 477.147867c3.197021 4.261694 3.255003 5.045454 2.552218 10.035925l-0.364888 2.210323-0.330898 2.257309c-0.269917 1.832439-0.560828 3.661878-0.856738 5.490318h-0.999694v-19.993875zM527.13259 1020.981256h19.993875v0.999693l-1.757462 0.183944c-4.441639 0.475854-8.838292 1.025686-13.237944 1.815444v-1.999388h-4.998469v-0.999693z" fill="#F9F9F9" p-id="6656"></path><path d="M3.293076 463.152155h0.999694c0.026992 1.416566 0.046986 2.832132 0.061981 4.248698l0.035989 2.390268C4.296769 472.056427 3.924883 473.977838 3.293076 476.148173l-2.999081-0.999693c-0.124962-2.374273-0.124962-2.374273 0-4.998469l1.999387-1.999388c0.647802-2.570213 0.647802-2.570213 0.999694-4.998468zM1016.982517 607.108052h0.999694c-0.778761 11.518471-0.778761 11.518471-2.999081 16.994793-1.039681-3.378965-1.079669-6.476016-0.999694-9.996937h1.999388l0.999693-6.997856zM1013.983436 400.17145c3.715862 3.715862 3.945791 9.477097 4.123737 14.55754L1017.982211 417.166243h-0.999694l-0.999693-6.997856h-1.999388v-9.996937zM68.273169 762.06058l1.999387 5.998162-5.998162-0.999694-0.999694-3.998774c1.999387-0.999694 1.999387-0.999694 4.998469-0.999694zM27.285726 353.185845v2.999081c-2.374273 1.561522-2.374273 1.561522-4.998469 2.999081l-1.999387 1.999387 0.999693-6.997856c2.999081-0.999694 2.999081-0.999694 5.998163-0.999693z m-4.998469 1.999387l0.999694 1.999388z" fill="#EFEFEF" p-id="6657"></path><path d="M929.009469 751.063949c0.74977 1.687483 0.74977 1.687483 0.999694 3.998775-1.874426 2.561215-1.874426 2.561215-3.998775 4.998468l-0.999694 2.999082h-1.999387c1.56552-4.306681 3.681872-8.059531 5.998162-11.996325z" fill="#F2E7CF" p-id="6658"></path><path d="M350.1868 995.988912c2.874119 0.249923 2.874119 0.249923 5.998163 0.999694 1.374579 2.061368 1.374579 2.061368 1.999387 3.998775l-6.997856-0.999694-0.999694-3.998775zM719.073786 977.994425l1.999388 0.999694c-0.74977 2.437253-0.74977 2.437253-1.999388 4.998469-2.124349 0.811751-2.124349 0.811751-3.998775 0.999693l-0.999693-4.998468c2.374273-1.061675 2.374273-1.061675 4.998468-1.999388zM48.279294 727.071299h1.999387l1.999388 6.997856h-1.999388v-1.999387h-1.999387l-0.999694 1.999387-0.999693-3.998775h1.999387v-2.999081z" fill="#EFEFEF" p-id="6659"></path><path d="M173.24101 124.255981l1.999388 0.999693c-1.811445 2.999081-1.811445 2.999081-3.998775 5.998163h-2.999082c1.292604-2.883117 2.658186-4.870508 4.998469-6.997856z" fill="#E2E2E2" p-id="6660"></path><path d="M99.263674 812.045266l3.998775 4.998469c-1.749464 0.687789-1.749464 0.687789-3.998775 0.999694-2.249311-1.43756-2.249311-1.43756-3.998775-2.999082l0.999694-1.999387 1.999387 0.999694 0.999694-1.999388z" fill="#F9F9F9" p-id="6661"></path><path d="M1008.984968 643.097026c1.123656 3.302988 0.895726 5.049453-0.437866 8.247473l-0.870733 2.140345L1006.98558 655.093351c-1.116658-1.733469-1.116658-1.733469-1.999387-3.998775 0.679792-2.140344 0.679792-2.140344 1.874425-4.248698l1.179639-2.140345L1008.984968 643.097026z" fill="#E2E2E2" p-id="6662"></path><path d="M14.289707 643.097026c4.767539 5.536304 4.767539 5.536304 4.998469 8.997244l-1.999388 2.999081a356.988631 356.988631 0 0 1-1.49954-3.748852l-0.843742-2.108354C14.289707 647.095801 14.289707 647.095801 14.289707 643.097026z" fill="#EFEFEF" p-id="6663"></path><path d="M1005.985886 369.180944c1.999387 0.999694 1.999387 0.999694 3.187024 4.31068 0.71778 3.263 1.014689 4.679566-0.187942 7.685645-3.536916-5.536304-3.536916-5.536304-3.998775-8.997244l0.999693-2.999081z" fill="#E2E2E2" p-id="6664"></path><path d="M17.288788 369.180944c1.116658 1.733469 1.116658 1.733469 1.999388 3.998775-0.679792 2.140344-0.679792 2.140344-1.874426 4.248699l-1.179639 2.140344L15.289401 381.177269c-1.123656-3.302988-0.895726-5.049453 0.437866-8.247473l0.870733-2.140345L17.288788 369.180944z" fill="#EFEFEF" p-id="6665"></path><path d="M23.286951 668.089369c2.02338 3.03407 2.320289 4.192715 2.624196 7.685646l0.22693 2.44825L26.286032 680.085694c-1.999387-0.999694-1.999387-0.999694-3.187024-3.748851-0.822748-3.292991-0.755768-5.038456 0.187943-8.247474zM220.226615 931.00882l4.998469 1.999387-1.999387 2.999082 0.999693 1.999387-4.998468-1.999387 0.999693-4.998469z" fill="#F9F9F9" p-id="6666"></path><path d="M48.279294 732.069768h1.999387v1.999387h2.999082l0.999693 3.998775h-2.999081l-0.999694-1.999387-1.999387 0.999694-0.999694-2.999082 0.999694-1.999387z" fill="#E2E2E2" p-id="6667"></path><path d="M6.292157 607.108052h0.999694l0.999694 6.997856h1.999387l-0.999693 4.998469-1.999388-0.999694c-0.413873-2.503233-0.413873-2.503233-0.624809-5.560297l-0.22693-3.06606L6.292157 607.108052zM1.293689 477.147867h1.999387v8.997244l-1.999387 0.999693a548.571937 548.571937 0 0 1-0.561828-4.43664l-0.316903-2.495236L0.293995 478.147561l0.999694-0.999694z" fill="#F9F9F9" p-id="6668"></path><path d="M107.261224 201.232398c-1.132653 3.397959-2.124349 4.051759-4.998469 5.998162v-1.999387l-2.999081 0.999693c0.999694-2.999081 0.999694-2.999081 2.87412-4.186717C104.262143 201.232398 104.262143 201.232398 107.261224 201.232398z" fill="#EFEFEF" p-id="6669"></path><path d="M369.180981 1005.98585c4.2437-0.332898 6.353054-0.438866 9.934956 1.999387l2.061369 1.999388c-4.316678-0.507844-8.03054-1.196633-11.996325-2.999082v-0.999693z" fill="#F9F9F9" p-id="6670"></path><path d="M715.075011 980.993506v4.998469l-5.998162-1.999387v-1.999388c1.999387-0.999694 1.999387-0.999694 5.998162-0.999694z" fill="#EFEFEF" p-id="6671"></path><path d="M967.997525 745.065786l1.999387 0.999694c-0.874732 4.748545-0.874732 4.748545-1.999387 6.997856l-2.999081-0.999693 2.999081-6.997857zM48.279294 288.205752h4.998469c-0.311904 1.937406-0.311904 1.937406-0.999694 3.998775l-2.999081 0.999694-1.999388-1.999388 0.999694-2.999081zM965.998137 271.210959h1.999388c1.428562 2.353279 2.086361 3.478934 1.624502 6.248086L968.997218 279.208509c-1.891421-2.385269-3.023074-4.070753-3.998774-6.997856l0.999693-0.999694z" fill="#F9F9F9" p-id="6672"></path><path d="M890.021414 808.046491l0.999694 2.999082c-1.214628 1.823441-1.214628 1.823441-2.937101 3.68687l-1.713475 1.885422L885.022945 818.043429c0-3.39496 0.52184-4.064755 2.499235-6.685952l1.405569-1.885422L890.021414 808.046491z" fill="#F2E7CF" p-id="6673"></path><path d="M82.268881 787.052923c1.499541 1.249617 1.499541 1.249617 2.999081 2.999081v3.998775l-2.999081 0.999694c-1.096664-3.288992-0.799755-4.711557 0-7.99755zM8.291545 406.169612l1.999387 0.999694v2.999081H8.291545l-0.999694 6.997856H6.292157c0.139957-1.645496 0.286912-3.290992 0.437866-4.936487l0.245925-2.77615C7.291851 407.169306 7.291851 407.169306 8.291545 406.169612z" fill="#EFEFEF" p-id="6674"></path><path d="M25.286338 344.188601c1.107661 3.323982 0.844741 5.620278 0 8.997244l-2.999081 0.999693c0.307906-1.479547 0.621809-2.958094 0.937713-4.43664l0.526838-2.495236C24.286644 345.188295 24.286644 345.188295 25.286338 344.188601z" fill="#F9F9F9" p-id="6675"></path><path d="M98.26398 266.21249c0.811751 1.687483 0.811751 1.687483 0.999694 3.998775-2.437253 2.749158-2.437253 2.749158-4.998468 4.998469 1.058676-3.401958 2.008385-6.012158 3.998774-8.997244z" fill="#373739" p-id="6676"></path><path d="M837.037646 114.259043l2.999081 0.999694 0.999694 6.997856-4.998468-4.998468h1.999387l-0.999694-2.999082z" fill="#F9F9F9" p-id="6677"></path><path d="M587.114214 3.293039c4.83152-0.082975 9.234171 0.046986 13.995712 0.999694v0.999694l-13.995712-0.999694V3.293039zM437.160155 3.293039v0.999694l-13.995713 0.999694V4.292733c4.761541-0.952708 9.164192-1.082668 13.995713-0.999694zM736.06858 973.99565l1.999387 0.999694c-5.174415 3.222013-5.174415 3.222013-6.997856 3.998775l-2.999081-0.999694a333.791738 333.791738 0 0 1 3.873813-2.061368l2.179332-1.160645L736.06858 973.99565zM286.206401 973.99565c3.910802 1.155646 6.872894 2.354279 9.996938 4.998469-3.947791-0.563827-6.706945-1.742466-9.996938-3.998775v-0.999694z" fill="#E2E2E2" p-id="6678"></path><path d="M728.07103 45.280176c3.956788 0.564827 6.663958 1.808446 9.996937 3.998775l-1.999387 0.999694c-1.944404-0.776762-1.944404-0.776762-4.123737-1.937407l-2.194328-1.151647L728.07103 46.27987v-0.999694zM296.203339 46.27987a333.791738 333.791738 0 0 1-3.873813 2.061368l-2.179333 1.160645L288.205789 50.278645l-1.999388-0.999694c6.622971-4.123737 6.622971-4.123737 9.996938-2.999081z" fill="#EFEFEF" p-id="6679"></path><path d="M643.097063 1009.984625c-3.13404 1.857431-5.373354 2.200326-8.997244 1.999387 3.13404-1.857431 5.373354-2.200326 8.997244-1.999387zM381.177306 1009.984625l8.997243 0.999693v0.999694l-8.997243-0.999694v-0.999693z" fill="#D8D8D8" p-id="6680"></path><path d="M12.29032 634.099782c1.857431 3.13404 2.200326 5.373354 1.999387 8.997244-1.857431-3.13404-2.200326-5.373354-1.999387-8.997244zM13.290013 381.177269h0.999694l-0.999694 8.997244h-0.999693l0.999693-8.997244z" fill="#EFEFEF" p-id="6681"></path><path d="M634.099819 12.290283l8.997244 0.999694v0.999693l-8.997244-0.999693v-0.999694zM390.174549 12.290283c-3.13404 1.857431-5.373354 2.200326-8.997243 1.999387 3.13404-1.857431 5.373354-2.200326 8.997243-1.999387z" fill="#D8D8D8" p-id="6682"></path><path d="M668.277348 1002.36196L670.088793 1002.986769l-6.997856 0.999693c2.999081-1.999387 2.999081-1.999387 5.186411-1.624502zM354.185575 1001.987075l6.997856 0.999694c-1.811445 0.624809-1.811445 0.624809-3.998775 0.999693l-2.999081-1.999387zM337.190782 995.988912l6.997856 0.999694c-1.811445 0.624809-1.811445 0.624809-3.998775 0.999694l-2.999081-1.999388zM685.272142 996.363798L687.083587 996.988606l-6.997856 0.999694c2.999081-1.999387 2.999081-1.999387 5.186411-1.624502zM680.085731 26.285995l6.997856 0.999694c-1.811445 0.624809-1.811445 0.624809-3.998775 0.999694l-2.999081-1.999388zM342.377193 26.66088L344.188638 27.285689l-6.997856 0.999694c2.999081-1.999387 2.999081-1.999387 5.186411-1.624503zM663.090937 20.287833l6.997856 0.999694c-1.811445 0.624809-1.811445 0.624809-3.998774 0.999693l-2.999082-1.999387zM359.371986 20.662718L361.183431 21.287527l-6.997856 0.999693c2.999081-1.999387 2.999081-1.999387 5.186411-1.624502zM587.114214 1019.981562h6.997856v0.999694h-6.997856v-0.999694zM430.162298 1019.981562h6.997857v0.999694h-6.997857v-0.999694z" fill="#EFEFEF" p-id="6683"></path><path d="M594.11207 1018.981868h6.997856v0.999694h-6.997856v-0.999694zM423.164442 1018.981868h6.997856v0.999694h-6.997856v-0.999694z" fill="#F9F9F9" p-id="6684"></path><path d="M4.29277 594.112033h0.999694v6.997856H4.29277v-6.997856z" fill="#E2E2E2" p-id="6685"></path><path d="M1018.981905 594.112033h0.999694v6.997856h-0.999694v-6.997856z" fill="#EFEFEF" p-id="6686"></path><path d="M3.293076 587.114177h0.999694v6.997856H3.293076v-6.997856z" fill="#E2E2E2" p-id="6687"></path><path d="M1019.981599 587.114177h0.999693v6.997856h-0.999693v-6.997856zM1019.981599 430.162262h0.999693v6.997856h-0.999693v-6.997856z" fill="#EFEFEF" p-id="6688"></path><path d="M3.293076 430.162262h0.999694v6.997856H3.293076v-6.997856zM4.29277 423.164406h0.999694v6.997856H4.29277v-6.997856z" fill="#E2E2E2" p-id="6689"></path><path d="M1018.981905 423.164406h0.999694v6.997856h-0.999694v-6.997856zM601.109926 1017.982174h5.998163v0.999694h-5.998163v-0.999694zM417.16628 1017.982174h5.998162v0.999694h-5.998162v-0.999694z" fill="#EFEFEF" p-id="6690"></path><path d="M692.082056 992.989831l2.999081 0.999694-4.998469 0.999694 1.999388-1.999388z" fill="#D8D8D8" p-id="6691"></path><path d="M746.065517 968.997182l2.999081 0.999693-4.998469 0.999694 1.999388-1.999387zM275.20977 968.997182l4.998469 0.999693-2.999081 0.999694-1.999388-1.999387z" fill="#EFEFEF" p-id="6692"></path><path d="M1017.982211 601.109889h0.999694v5.998163h-0.999694v-5.998163zM5.292464 601.109889h0.999693v5.998163H5.292464v-5.998163zM1017.982211 417.166243h0.999694v5.998163h-0.999694v-5.998163zM5.292464 417.166243h0.999693v5.998163H5.292464v-5.998163z" fill="#F9F9F9" p-id="6693"></path><path d="M744.066129 53.277726l4.998469 0.999694-2.999081 0.999693-1.999388-1.999387zM277.209158 53.277726l2.999081 0.999694-4.998469 0.999693 1.999388-1.999387zM601.109926 5.292427h5.998163v0.999694h-5.998163V5.292427zM417.16628 5.292427h5.998162v0.999694h-5.998162V5.292427z" fill="#EFEFEF" p-id="6694"></path><path d="M624.102882 1012.983706h4.998469v0.999694h-4.998469v-0.999694zM395.173018 1012.983706h4.998469v0.999694h-4.998469v-0.999694zM629.101351 1011.984012h4.998468v0.999694h-4.998468v-0.999694zM390.174549 1011.984012h4.998469v0.999694h-4.998469v-0.999694zM629.101351 11.290589h4.998468v0.999694h-4.998468v-0.999694zM390.174549 11.290589h4.998469v0.999694h-4.998469v-0.999694zM624.102882 10.290896h4.998469v0.999693h-4.998469v-0.999693zM395.173018 10.290896h4.998469v0.999693h-4.998469v-0.999693z" fill="#F9F9F9" p-id="6695"></path><path d="M655.093388 1004.986156l3.998774 0.999694zM365.182206 1004.986156l3.998775 0.999694z" fill="#EFEFEF" p-id="6696"></path><path d="M659.092162 1003.986462l3.998775 0.999694z" fill="#F9F9F9" p-id="6697"></path><path d="M361.183431 1003.986462l3.998775 0.999694z" fill="#EFEFEF" p-id="6698"></path><path d="M808.046528 931.00882l1.999388 0.999694h-2.999082l0.999694-0.999694zM214.228453 931.00882l2.999081 0.999694h-2.999081v-0.999694z" fill="#E2E2E2" p-id="6699"></path><path d="M917.013145 827.040672v2.999081z" fill="#AAAAAA" p-id="6700"></path><path d="M1003.986499 659.092126l0.999694 3.998775zM19.288176 659.092126l0.999694 3.998775zM18.288482 655.093351l0.999694 3.998775z" fill="#EFEFEF" p-id="6701"></path><path d="M1004.986193 655.093351l0.999693 3.998775zM1004.986193 365.182169l0.999693 3.998775z" fill="#F9F9F9" p-id="6702"></path><path d="M18.288482 365.182169l0.999694 3.998775zM1003.986499 361.183394l0.999694 3.998775zM19.288176 361.183394l0.999694 3.998775z" fill="#EFEFEF" p-id="6703"></path><path d="M916.013451 194.234542l1.999387 0.999693-0.999693 1.999388-0.999694-2.999081z" fill="#AAAAAA" p-id="6704"></path><path d="M215.228147 91.266088l1.999387 0.999693h-2.999081l0.999694-0.999693zM807.046834 91.266088l2.999082 0.999693h-2.999082v-0.999693z" fill="#E2E2E2" p-id="6705"></path><path d="M659.092162 19.288139l3.998775 0.999694z" fill="#F9F9F9" p-id="6706"></path><path d="M361.183431 19.288139l3.998775 0.999694zM655.093388 18.288445l3.998774 0.999694zM365.182206 18.288445l3.998775 0.999694z" fill="#EFEFEF" p-id="6707"></path><path d="M670.088793 1000.987381l2.999082 0.999694zM351.186494 1000.987381l2.999081 0.999694z" fill="#F9F9F9" p-id="6708"></path><path d="M687.083587 994.989219l2.999081 0.999693zM334.1917 994.989219l2.999082 0.999693z" fill="#E2E2E2" p-id="6709"></path><path d="M331.192619 993.989525l2.999081 0.999694zM704.07838 987.991363l2.999081 0.999693zM317.196907 987.991363l2.999081 0.999693zM707.077461 986.991669l2.999082 0.999694zM314.197826 986.991669l2.999081 0.999694zM710.076543 985.991975l2.999081 0.999694zM311.198745 985.991975l2.999081 0.999694zM725.071949 978.994119l2.999081 0.999694zM296.203339 978.994119l2.999081 0.999694zM245.218959 951.002695l1.999387 1.999387h-1.999387v-1.999387zM778.055716 951.002695l0.999694 1.999387-1.999388-0.999694 0.999694-0.999693z" fill="#F9F9F9" p-id="6710"></path><path d="M187.236722 910.015252l1.999388 1.999387h-1.999388v-1.999387z" fill="#E2E2E2" p-id="6711"></path><path d="M836.037953 910.015252l0.999693 1.999387-1.999387-0.999694 0.999694-0.999693zM112.259693 835.038222l1.999387 1.999387h-1.999387v-1.999387zM911.014982 835.038222l0.999694 1.999387-1.999388-0.999693 0.999694-0.999694zM910.015288 187.236686h1.999388l-0.999694 1.999387-0.999694-1.999387zM112.259693 187.236686l1.999387 0.999693-1.999387 0.999694v-1.999387z" fill="#F9F9F9" p-id="6712"></path><path d="M835.038259 112.259656h1.999387l-0.999693 1.999387-0.999694-1.999387zM187.236722 112.259656l1.999388 0.999694-1.999388 0.999693v-1.999387z" fill="#E2E2E2" p-id="6713"></path><path d="M777.056022 71.272213h1.999388l-0.999694 1.999387-0.999694-1.999387zM725.071949 44.280482l2.999081 0.999694zM296.203339 44.280482l2.999081 0.999694zM710.076543 37.282626l2.999081 0.999694zM311.198745 37.282626l2.999081 0.999694zM707.077461 36.282932l2.999082 0.999694zM314.197826 36.282932l2.999081 0.999694zM704.07838 35.283239l2.999081 0.999693zM317.196907 35.283239l2.999081 0.999693zM690.082668 29.285076l2.999081 0.999694zM331.192619 29.285076l2.999081 0.999694z" fill="#F9F9F9" p-id="6714"></path><path d="M687.083587 28.285383l2.999081 0.999693zM334.1917 28.285383l2.999082 0.999693z" fill="#C6C6C6" p-id="6715"></path><path d="M670.088793 22.28722l2.999082 0.999694zM351.186494 22.28722l2.999081 0.999694zM329.193232 992.989831l1.999387 0.999694z" fill="#F9F9F9" p-id="6716"></path><path d="M702.078993 988.991056l1.999387 0.999694zM320.195988 988.991056l1.999388 0.999694z" fill="#C6C6C6" p-id="6717"></path><path d="M723.072561 979.993813l1.999388 0.999693zM299.20242 979.993813l1.999387 0.999693zM738.067967 972.995957l1.999388 0.999693zM284.207014 972.995957l1.999387 0.999693zM740.067355 971.996263l1.999387 0.999694zM282.207627 971.996263l1.999387 0.999694zM742.066742 970.996569l1.999387 0.999694zM280.208239 970.996569l1.999388 0.999694zM753.063373 964.998407l1.999387 0.999694zM269.211608 964.998407l1.999388 0.999694zM759.061535 961.999326l1.999388 0.999693zM263.213446 961.999326l1.999387 0.999693zM771.05786 955.00147l1.999388 0.999693zM251.217121 955.00147l1.999387 0.999693z" fill="#F9F9F9" p-id="6718"></path><path d="M773.057248 954.001776l1.999387 0.999694zM249.217734 954.001776l1.999387 0.999694z" fill="#C6C6C6" p-id="6719"></path><path d="M775.056635 953.002082l1.999387 0.999694zM247.218346 953.002082l1.999388 0.999694zM781.054797 949.003307l1.999388 0.999694zM241.220184 949.003307l1.999387 0.999694zM786.053266 946.004226l1.999388 0.999694zM236.221715 946.004226l1.999388 0.999694zM795.05051 940.006064l1.999387 0.999693zM227.224471 940.006064l1.999388 0.999693zM797.049897 939.00637l1.999388 0.999694zM225.225084 939.00637l1.999387 0.999694z" fill="#F9F9F9" p-id="6720"></path><path d="M805.047447 933.008207l1.999387 0.999694zM217.227534 933.008207l1.999388 0.999694z" fill="#C6C6C6" p-id="6721"></path><path d="M818.043465 924.010964l1.999388 0.999694zM204.231516 924.010964l1.999387 0.999694z" fill="#F9F9F9" p-id="6722"></path><path d="M828.040403 916.013414l1.999387 0.999694zM194.234578 916.013414l1.999388 0.999694zM828.040403 107.261187l1.999387 0.999694z" fill="#C6C6C6" p-id="6723"></path><path d="M194.234578 107.261187l1.999388 0.999694zM818.043465 99.263637l1.999388 0.999694zM204.231516 99.263637l1.999387 0.999694z" fill="#F9F9F9" p-id="6724"></path><path d="M805.047447 90.266394l1.999387 0.999694zM217.227534 90.266394l1.999388 0.999694z" fill="#C6C6C6" p-id="6725"></path><path d="M797.049897 84.268231l1.999388 0.999694zM225.225084 84.268231l1.999387 0.999694zM795.05051 83.268538l1.999387 0.999693zM227.224471 83.268538l1.999388 0.999693zM786.053266 77.270375l1.999388 0.999694zM236.221715 77.270375l1.999388 0.999694zM781.054797 74.271294l1.999388 0.999694zM241.220184 74.271294l1.999387 0.999694zM775.056635 70.272519l1.999387 0.999694zM247.218346 70.272519l1.999388 0.999694z" fill="#F9F9F9" p-id="6726"></path><path d="M773.057248 69.272826l1.999387 0.999693zM249.217734 69.272826l1.999387 0.999693z" fill="#C6C6C6" p-id="6727"></path><path d="M771.05786 68.273132l1.999388 0.999694zM251.217121 68.273132l1.999387 0.999694zM759.061535 61.275276l1.999388 0.999693zM263.213446 61.275276l1.999387 0.999693zM753.063373 58.276195l1.999387 0.999693zM269.211608 58.276195l1.999388 0.999693zM742.066742 52.278032l1.999387 0.999694zM280.208239 52.278032l1.999388 0.999694zM740.067355 51.278338l1.999387 0.999694zM282.207627 51.278338l1.999387 0.999694zM738.067967 50.278645l1.999388 0.999693zM284.207014 50.278645l1.999387 0.999693zM723.072561 43.280789l1.999388 0.999693zM299.20242 43.280789l1.999387 0.999693zM301.201807 42.281095l1.999388 0.999694z" fill="#F9F9F9" p-id="6728"></path><path d="M702.078993 34.283545l1.999387 0.999694zM320.195988 34.283545l1.999388 0.999694z" fill="#C6C6C6" p-id="6729"></path><path d="M693.081749 30.28477l1.999388 0.999694zM329.193232 30.28477l1.999387 0.999694z" fill="#F9F9F9" p-id="6730"></path></svg>