<svg xmlns="http://www.w3.org/2000/svg" width="200" height="200" style="shape-rendering:geometricPrecision;text-rendering:geometricPrecision;image-rendering:optimizeQuality;fill-rule:evenodd;clip-rule:evenodd"><path style="opacity:.01" fill="#f6f7f6" d="M59.5-.5h7c-3.055 2.131-6.389 2.798-10 2a44.287 44.287 0 0 0 3-2z"/><path style="opacity:.982" fill="#efefee" d="M70.5-.5h55c5.667 2.762 11.667 4.928 18 6.5a21.52 21.52 0 0 1 6 5l4.5 1.5c2.954-1.636 5.454-1.136 7.5 1.5-2.307 1.828-1.974 3.494 1 5a8.908 8.908 0 0 1 4 3c3.438-.135 6.272 1.032 8.5 3.5.72 1.612.554 3.112-.5 4.5a84.848 84.848 0 0 0 7 8.5c.928-1.835 2.094-2.168 3.5-1a25.766 25.766 0 0 0 3.5 7.5c-.405.945-1.072 1.612-2 2a37.937 37.937 0 0 0 5.5 8.5 6.802 6.802 0 0 1 1.5-3 81.686 81.686 0 0 1 5 11.5l-.5 3.5a41.318 41.318 0 0 1-4-8c.287 5.206 1.62 10.206 4 15 .667 16 .667 32 0 48-2.587 5.08-3.92 10.413-4 16a32.445 32.445 0 0 1 4-9c.814 2.402.647 4.735-.5 7a40.675 40.675 0 0 0-3.5 7l-7 4c-.393 1.699.107 3.199 1.5 4.5a52.141 52.141 0 0 0-3.5 7.5c-5.487 2.818-9.154 7.152-11 13-3.049 2.464-6.549 3.964-10.5 4.5l2 1a29.964 29.964 0 0 0-6 7 52.141 52.141 0 0 0-7.5 3.5c-3.24-2.865-5.406-2.198-6.5 2-3.297-.171-3.631.495-1 2-4.234 3.874-9.234 5.707-15 5.5a32.445 32.445 0 0 1 9-4c-5.587.08-10.92 1.413-16 4-16 .667-32 .667-48 0-4.794-2.38-9.794-3.713-15-4a41.318 41.318 0 0 1 8 4c-2.402.814-4.735.647-7-.5a27.368 27.368 0 0 0-8-4c3.297-.642 3.63-1.809 1-3.5a60.603 60.603 0 0 1-6.5-3.5c-.388.928-1.055 1.595-2 2a102.626 102.626 0 0 1-8.5-5l2-2c-3.724-4.361-8.391-6.861-14-7.5-2.862-1.786-3.528-4.119-2-7l-6-7c-3.185 1.234-5.185.068-6-3.5 2.405-5.234.738-9.067-5-11.5l1-1a152.83 152.83 0 0 0-7-18.5v-55a360.245 360.245 0 0 1 13-28.5c-1.482-2.573-.982-4.74 1.5-6.5 1.828 2.307 3.494 1.974 5-1a8.905 8.905 0 0 1 3-4c-.135-3.438 1.032-6.272 3.5-8.5 4.87.072 8.87-2.095 12-6.5-2.528-1.017-2.528-2.184 0-3.5l3-1.5c1.268.928 2.601 1.095 4 .5a436.73 436.73 0 0 1 26-11.5z"/><path style="opacity:.008" fill="#f7f7f7" d="M130.5-.5h6a51.203 51.203 0 0 1 4 2.5c-3.662.275-6.996-.558-10-2.5z"/><path style="opacity:.004" fill="#d9dbd9" d="M144.5 4.5c1.333.667 1.333.667 0 0z"/><path style="opacity:1" fill="#1c1c1e" d="M179.5 52.5a1690.557 1690.557 0 0 1-162 0C41.843 14.093 76.51-.74 121.5 8c25.324 7.173 44.657 22.006 58 44.5z"/><path style="opacity:1" fill="#777778" d="M17.5 52.5a1690.557 1690.557 0 0 0 162 0c.978.311 1.645.978 2 2a2182.327 2182.327 0 0 1-154.5 1l-11.5-1c.355-1.022 1.022-1.689 2-2z"/><path style="opacity:.01" fill="#f6f7f6" d="M-.5 66.5v-7a44.287 44.287 0 0 0 2-3c.798 3.611.131 6.945-2 10z"/><path style="opacity:.008" fill="#f7f7f7" d="M-.5 130.5c1.942 3.004 2.775 6.338 2.5 10a51.203 51.203 0 0 1-2.5-4v-6z"/><path style="opacity:1" fill="#fac074" d="M179.5 144.5a1691.079 1691.079 0 0 0-162 0c-.978-.311-1.645-.978-2-2a1723.035 1723.035 0 0 1 166 0c-.355 1.022-1.022 1.689-2 2z"/><path style="opacity:1" fill="#fdaf0f" d="M179.5 144.5c-25.308 38.969-60.974 53.802-107 44.5-24.76-6.93-43.093-21.763-55-44.5a1691.079 1691.079 0 0 1 162 0z"/><path style="opacity:.004" fill="#d9dbd9" d="M145.5 190.5c1.333.667 1.333.667 0 0z"/></svg>