<?xml version="1.0" standalone="no"?>
<!DOCTYPE svg PUBLIC "-//W3C//DTD SVG 1.1//EN" "http://www.w3.org/Graphics/SVG/1.1/DTD/svg11.dtd">
<svg t="1608693866528" class="icon" viewBox="0 0 1024 1024" version="1.1" xmlns="http://www.w3.org/2000/svg" p-id="11370" xmlns:xlink="http://www.w3.org/1999/xlink" width="200" height="200">
    <defs>
        <style type="text/css"></style>
    </defs>
    <path d="M512 64C264.6 64 64 264.6 64 512c0 200.6 130.3 370.5 311.1 430.2 22.7 4.2 31 -9.8 31 -21.8v-77.5c-126.4 27.5-152.9-60.8-152.9-60.8-20.6-52.8-50.3-66.9-50.3-66.9-41.1-28.1 3.1-27.6 3.1-27.6 45.5 3.2 69.4 46.8 69.4 46.8 40.5 69.4 106.3 49.3 132.2 37.7 4.1-29.3 15.8-49.3 28.8-60.6-100.9-11.5-207.1-50.6-207.1-225.5 0-49.9 17.9-90.6 47.4-122.7-4.7-11.7-20.6-58 4.5-120.8 0 0 38.7-12.4 126.5 47.3 36.8-10.2 76.2-15.4 115.4-15.6 39.2 0.2 78.7 5.3 115.6 15.6 87.7-59.7 126.3-47.3 126.3-47.3 25.2 62.8 9.4 109.1 4.7 120.7 29.5 32.1 47.3 72.8 47.3 122.7 0 175.2-106.4 213.9-207.7 225.2 16.3 14.1 30.8 42.1 30.8 84.9 0 60.6-0.5 109.4-0.5 124.2 0 12.3 8.3 26.2 31.2 21.7C829.8 882.3 960 712.4 960 512 960 264.6 759.4 64 512 64z" p-id="11371" fill=""></path>
</svg>
